<svg width="337" height="719" viewBox="0 0 337 719" fill="none" xmlns="http://www.w3.org/2000/svg" xmlns:xlink="http://www.w3.org/1999/xlink">
<path d="M28.9102 272.699L238.202 38.9823" stroke="#936EEA" stroke-width="5"/>
<rect x="-161" y="20" width="498" height="699" fill="url(#pattern0)"/>
<g opacity="0.3">
<mask id="path-3-outside-1_1052_2" maskUnits="userSpaceOnUse" x="28" y="0" width="17" height="17" fill="black">
<rect fill="white" x="28" width="17" height="17"/>
<path fill-rule="evenodd" clip-rule="evenodd" d="M36.5 1C36.2239 1 36 1.22386 36 1.5V8H29.5C29.2239 8 29 8.22386 29 8.5C29 8.77614 29.2239 9 29.5 9H36V15.5C36 15.7761 36.2239 16 36.5 16C36.7761 16 37 15.7761 37 15.5V9H43.5C43.7761 9 44 8.77614 44 8.5C44 8.22386 43.7761 8 43.5 8H37V1.5C37 1.22386 36.7761 1 36.5 1Z"/>
</mask>
<path fill-rule="evenodd" clip-rule="evenodd" d="M36.5 1C36.2239 1 36 1.22386 36 1.5V8H29.5C29.2239 8 29 8.22386 29 8.5C29 8.77614 29.2239 9 29.5 9H36V15.5C36 15.7761 36.2239 16 36.5 16C36.7761 16 37 15.7761 37 15.5V9H43.5C43.7761 9 44 8.77614 44 8.5C44 8.22386 43.7761 8 43.5 8H37V1.5C37 1.22386 36.7761 1 36.5 1Z" fill="#5C37B7"/>
<path d="M36 8V9H37V8H36ZM36 9H37V8H36V9ZM37 9V8H36V9H37ZM37 8H36V9H37V8ZM37 1.5C37 1.77614 36.7761 2 36.5 2V0C35.6716 0 35 0.671575 35 1.5H37ZM37 8V1.5H35V8H37ZM29.5 9H36V7H29.5V9ZM30 8.5C30 8.77614 29.7761 9 29.5 9V7C28.6716 7 28 7.67157 28 8.5H30ZM29.5 8C29.7761 8 30 8.22386 30 8.5H28C28 9.32843 28.6716 10 29.5 10V8ZM36 8H29.5V10H36V8ZM37 15.5V9H35V15.5H37ZM36.5 15C36.7761 15 37 15.2239 37 15.5H35C35 16.3284 35.6716 17 36.5 17V15ZM36 15.5C36 15.2239 36.2239 15 36.5 15V17C37.3284 17 38 16.3284 38 15.5H36ZM36 9V15.5H38V9H36ZM43.5 8H37V10H43.5V8ZM43 8.5C43 8.22386 43.2239 8 43.5 8V10C44.3284 10 45 9.32843 45 8.5H43ZM43.5 9C43.2239 9 43 8.77614 43 8.5H45C45 7.67157 44.3284 7 43.5 7V9ZM37 9H43.5V7H37V9ZM36 1.5V8H38V1.5H36ZM36.5 2C36.2239 2 36 1.77614 36 1.5H38C38 0.671573 37.3284 0 36.5 0V2Z" fill="#9173E6" mask="url(#path-3-outside-1_1052_2)"/>
</g>
<mask id="path-5-outside-2_1052_2" maskUnits="userSpaceOnUse" x="50" y="9" width="17" height="17" fill="black">
<rect fill="white" x="50" y="9" width="17" height="17"/>
<path fill-rule="evenodd" clip-rule="evenodd" d="M58.5 10C58.2239 10 58 10.2239 58 10.5V17H51.5C51.2239 17 51 17.2239 51 17.5C51 17.7761 51.2239 18 51.5 18H58V24.5C58 24.7761 58.2239 25 58.5 25C58.7761 25 59 24.7761 59 24.5V18H65.5C65.7761 18 66 17.7761 66 17.5C66 17.2239 65.7761 17 65.5 17H59V10.5C59 10.2239 58.7761 10 58.5 10Z"/>
</mask>
<path fill-rule="evenodd" clip-rule="evenodd" d="M58.5 10C58.2239 10 58 10.2239 58 10.5V17H51.5C51.2239 17 51 17.2239 51 17.5C51 17.7761 51.2239 18 51.5 18H58V24.5C58 24.7761 58.2239 25 58.5 25C58.7761 25 59 24.7761 59 24.5V18H65.5C65.7761 18 66 17.7761 66 17.5C66 17.2239 65.7761 17 65.5 17H59V10.5C59 10.2239 58.7761 10 58.5 10Z" fill="#5C37B7"/>
<path d="M58 17V18H59V17H58ZM58 18H59V17H58V18ZM59 18V17H58V18H59ZM59 17H58V18H59V17ZM59 10.5C59 10.7761 58.7761 11 58.5 11V9C57.6716 9 57 9.67157 57 10.5H59ZM59 17V10.5H57V17H59ZM51.5 18H58V16H51.5V18ZM52 17.5C52 17.7761 51.7761 18 51.5 18V16C50.6716 16 50 16.6716 50 17.5H52ZM51.5 17C51.7761 17 52 17.2239 52 17.5H50C50 18.3284 50.6716 19 51.5 19V17ZM58 17H51.5V19H58V17ZM59 24.5V18H57V24.5H59ZM58.5 24C58.7761 24 59 24.2239 59 24.5H57C57 25.3284 57.6716 26 58.5 26V24ZM58 24.5C58 24.2239 58.2239 24 58.5 24V26C59.3284 26 60 25.3284 60 24.5H58ZM58 18V24.5H60V18H58ZM65.5 17H59V19H65.5V17ZM65 17.5C65 17.2239 65.2239 17 65.5 17V19C66.3284 19 67 18.3284 67 17.5H65ZM65.5 18C65.2239 18 65 17.7761 65 17.5H67C67 16.6716 66.3284 16 65.5 16V18ZM59 18H65.5V16H59V18ZM58 10.5V17H60V10.5H58ZM58.5 11C58.2239 11 58 10.7761 58 10.5H60C60 9.67157 59.3284 9 58.5 9V11Z" fill="#9173E6" mask="url(#path-5-outside-2_1052_2)"/>
<defs>
<pattern id="pattern0" patternContentUnits="objectBoundingBox" width="1" height="1">
</pattern>
</defs>
</svg>
