<svg width="302" height="251" viewBox="0 0 302 251" fill="none" xmlns="http://www.w3.org/2000/svg" xmlns:xlink="http://www.w3.org/1999/xlink">
<g opacity="0.3">
<mask id="path-1-outside-1_1068_4" maskUnits="userSpaceOnUse" x="48" y="0" width="17" height="17" fill="black">
<rect fill="white" x="48" width="17" height="17"/>
<path fill-rule="evenodd" clip-rule="evenodd" d="M56.5 1C56.2239 1 56 1.22386 56 1.5V8H49.5C49.2239 8 49 8.22386 49 8.5C49 8.77614 49.2239 9 49.5 9H56V15.5C56 15.7761 56.2239 16 56.5 16C56.7761 16 57 15.7761 57 15.5V9H63.5C63.7761 9 64 8.77614 64 8.5C64 8.22386 63.7761 8 63.5 8H57V1.5C57 1.22386 56.7761 1 56.5 1Z"/>
</mask>
<path fill-rule="evenodd" clip-rule="evenodd" d="M56.5 1C56.2239 1 56 1.22386 56 1.5V8H49.5C49.2239 8 49 8.22386 49 8.5C49 8.77614 49.2239 9 49.5 9H56V15.5C56 15.7761 56.2239 16 56.5 16C56.7761 16 57 15.7761 57 15.5V9H63.5C63.7761 9 64 8.77614 64 8.5C64 8.22386 63.7761 8 63.5 8H57V1.5C57 1.22386 56.7761 1 56.5 1Z" fill="#5C37B7"/>
<path d="M56 8V9H57V8H56ZM56 9H57V8H56V9ZM57 9V8H56V9H57ZM57 8H56V9H57V8ZM57 1.5C57 1.77614 56.7761 2 56.5 2V0C55.6716 0 55 0.671575 55 1.5H57ZM57 8V1.5H55V8H57ZM49.5 9H56V7H49.5V9ZM50 8.5C50 8.77614 49.7761 9 49.5 9V7C48.6716 7 48 7.67157 48 8.5H50ZM49.5 8C49.7761 8 50 8.22386 50 8.5H48C48 9.32843 48.6716 10 49.5 10V8ZM56 8H49.5V10H56V8ZM57 15.5V9H55V15.5H57ZM56.5 15C56.7761 15 57 15.2239 57 15.5H55C55 16.3284 55.6716 17 56.5 17V15ZM56 15.5C56 15.2239 56.2239 15 56.5 15V17C57.3284 17 58 16.3284 58 15.5H56ZM56 9V15.5H58V9H56ZM63.5 8H57V10H63.5V8ZM63 8.5C63 8.22386 63.2239 8 63.5 8V10C64.3284 10 65 9.32843 65 8.5H63ZM63.5 9C63.2239 9 63 8.77614 63 8.5H65C65 7.67157 64.3284 7 63.5 7V9ZM57 9H63.5V7H57V9ZM56 1.5V8H58V1.5H56ZM56.5 2C56.2239 2 56 1.77614 56 1.5H58C58 0.671573 57.3284 0 56.5 0V2Z" fill="#9173E6" mask="url(#path-1-outside-1_1068_4)"/>
</g>
<mask id="path-3-outside-2_1068_4" maskUnits="userSpaceOnUse" x="70" y="9" width="17" height="17" fill="black">
<rect fill="white" x="70" y="9" width="17" height="17"/>
<path fill-rule="evenodd" clip-rule="evenodd" d="M78.5 10C78.2239 10 78 10.2239 78 10.5V17H71.5C71.2239 17 71 17.2239 71 17.5C71 17.7761 71.2239 18 71.5 18H78V24.5C78 24.7761 78.2239 25 78.5 25C78.7761 25 79 24.7761 79 24.5V18H85.5C85.7761 18 86 17.7761 86 17.5C86 17.2239 85.7761 17 85.5 17H79V10.5C79 10.2239 78.7761 10 78.5 10Z"/>
</mask>
<path fill-rule="evenodd" clip-rule="evenodd" d="M78.5 10C78.2239 10 78 10.2239 78 10.5V17H71.5C71.2239 17 71 17.2239 71 17.5C71 17.7761 71.2239 18 71.5 18H78V24.5C78 24.7761 78.2239 25 78.5 25C78.7761 25 79 24.7761 79 24.5V18H85.5C85.7761 18 86 17.7761 86 17.5C86 17.2239 85.7761 17 85.5 17H79V10.5C79 10.2239 78.7761 10 78.5 10Z" fill="#5C37B7"/>
<path d="M78 17V18H79V17H78ZM78 18H79V17H78V18ZM79 18V17H78V18H79ZM79 17H78V18H79V17ZM79 10.5C79 10.7761 78.7761 11 78.5 11V9C77.6716 9 77 9.67157 77 10.5H79ZM79 17V10.5H77V17H79ZM71.5 18H78V16H71.5V18ZM72 17.5C72 17.7761 71.7761 18 71.5 18V16C70.6716 16 70 16.6716 70 17.5H72ZM71.5 17C71.7761 17 72 17.2239 72 17.5H70C70 18.3284 70.6716 19 71.5 19V17ZM78 17H71.5V19H78V17ZM79 24.5V18H77V24.5H79ZM78.5 24C78.7761 24 79 24.2239 79 24.5H77C77 25.3284 77.6716 26 78.5 26V24ZM78 24.5C78 24.2239 78.2239 24 78.5 24V26C79.3284 26 80 25.3284 80 24.5H78ZM78 18V24.5H80V18H78ZM85.5 17H79V19H85.5V17ZM85 17.5C85 17.2239 85.2239 17 85.5 17V19C86.3284 19 87 18.3284 87 17.5H85ZM85.5 18C85.2239 18 85 17.7761 85 17.5H87C87 16.6716 86.3284 16 85.5 16V18ZM79 18H85.5V16H79V18ZM78 10.5V17H80V10.5H78ZM78.5 11C78.2239 11 78 10.7761 78 10.5H80C80 9.67157 79.3284 9 78.5 9V11Z" fill="#9173E6" mask="url(#path-3-outside-2_1068_4)"/>
<path d="M49 234.117L155.346 110.918" stroke="#936EEA" stroke-width="3"/>
<path d="M196.891 115.16L273.582 25.3223" stroke="#936EEA" stroke-width="3"/>
<rect y="2" width="302" height="249" fill="url(#pattern0)"/>
<mask id="path-8-outside-3_1068_4" maskUnits="userSpaceOnUse" x="265" y="150" width="17" height="17" fill="black">
<rect fill="white" x="265" y="150" width="17" height="17"/>
<path fill-rule="evenodd" clip-rule="evenodd" d="M273.5 151C273.224 151 273 151.224 273 151.5V158H266.5C266.224 158 266 158.224 266 158.5C266 158.776 266.224 159 266.5 159H273V165.5C273 165.776 273.224 166 273.5 166C273.776 166 274 165.776 274 165.5V159H280.5C280.776 159 281 158.776 281 158.5C281 158.224 280.776 158 280.5 158H274V151.5C274 151.224 273.776 151 273.5 151Z"/>
</mask>
<path fill-rule="evenodd" clip-rule="evenodd" d="M273.5 151C273.224 151 273 151.224 273 151.5V158H266.5C266.224 158 266 158.224 266 158.5C266 158.776 266.224 159 266.5 159H273V165.5C273 165.776 273.224 166 273.5 166C273.776 166 274 165.776 274 165.5V159H280.5C280.776 159 281 158.776 281 158.5C281 158.224 280.776 158 280.5 158H274V151.5C274 151.224 273.776 151 273.5 151Z" fill="#5C37B7"/>
<path d="M273 158V159H274V158H273ZM273 159H274V158H273V159ZM274 159V158H273V159H274ZM274 158H273V159H274V158ZM274 151.5C274 151.776 273.776 152 273.5 152V150C272.672 150 272 150.672 272 151.5H274ZM274 158V151.5H272V158H274ZM266.5 159H273V157H266.5V159ZM267 158.5C267 158.776 266.776 159 266.5 159V157C265.672 157 265 157.672 265 158.5H267ZM266.5 158C266.776 158 267 158.224 267 158.5H265C265 159.328 265.672 160 266.5 160V158ZM273 158H266.5V160H273V158ZM274 165.5V159H272V165.5H274ZM273.5 165C273.776 165 274 165.224 274 165.5H272C272 166.328 272.672 167 273.5 167V165ZM273 165.5C273 165.224 273.224 165 273.5 165V167C274.328 167 275 166.328 275 165.5H273ZM273 159V165.5H275V159H273ZM280.5 158H274V160H280.5V158ZM280 158.5C280 158.224 280.224 158 280.5 158V160C281.328 160 282 159.328 282 158.5H280ZM280.5 159C280.224 159 280 158.776 280 158.5H282C282 157.672 281.328 157 280.5 157V159ZM274 159H280.5V157H274V159ZM273 151.5V158H275V151.5H273ZM273.5 152C273.224 152 273 151.776 273 151.5H275C275 150.672 274.328 150 273.5 150V152Z" fill="#9173E6" mask="url(#path-8-outside-3_1068_4)"/>
<defs>
<pattern id="pattern0" patternContentUnits="objectBoundingBox" width="1" height="1">
</pattern>
</defs>
</svg>
