<svg width="219" height="281" viewBox="0 0 219 281" fill="none" xmlns="http://www.w3.org/2000/svg" xmlns:xlink="http://www.w3.org/1999/xlink">
<path d="M17.3594 210.145L196.252 12.9102" stroke="#936EEA" stroke-width="3"/>
<path d="M19 0H219V281H19V0Z" fill="url(#pattern0)"/>
<g opacity="0.3">
<mask id="path-3-outside-1_1068_3" maskUnits="userSpaceOnUse" x="0" y="10" width="17" height="17" fill="black">
<rect fill="white" y="10" width="17" height="17"/>
<path fill-rule="evenodd" clip-rule="evenodd" d="M8.5 11C8.22386 11 8 11.2239 8 11.5V18H1.5C1.22386 18 1 18.2239 1 18.5C1 18.7761 1.22386 19 1.5 19H8V25.5C8 25.7761 8.22386 26 8.5 26C8.77614 26 9 25.7761 9 25.5V19H15.5C15.7761 19 16 18.7761 16 18.5C16 18.2239 15.7761 18 15.5 18H9V11.5C9 11.2239 8.77614 11 8.5 11Z"/>
</mask>
<path fill-rule="evenodd" clip-rule="evenodd" d="M8.5 11C8.22386 11 8 11.2239 8 11.5V18H1.5C1.22386 18 1 18.2239 1 18.5C1 18.7761 1.22386 19 1.5 19H8V25.5C8 25.7761 8.22386 26 8.5 26C8.77614 26 9 25.7761 9 25.5V19H15.5C15.7761 19 16 18.7761 16 18.5C16 18.2239 15.7761 18 15.5 18H9V11.5C9 11.2239 8.77614 11 8.5 11Z" fill="#5C37B7"/>
<path d="M8 18V19H9V18H8ZM8 19H9V18H8V19ZM9 19V18H8V19H9ZM9 18H8V19H9V18ZM9 11.5C9 11.7761 8.77614 12 8.5 12V10C7.67157 10 7 10.6716 7 11.5H9ZM9 18V11.5H7V18H9ZM1.5 19H8V17H1.5V19ZM2 18.5C2 18.7761 1.77614 19 1.5 19V17C0.671573 17 0 17.6716 0 18.5H2ZM1.5 18C1.77614 18 2 18.2239 2 18.5H0C0 19.3284 0.671575 20 1.5 20V18ZM8 18H1.5V20H8V18ZM9 25.5V19H7V25.5H9ZM8.5 25C8.77614 25 9 25.2239 9 25.5H7C7 26.3284 7.67157 27 8.5 27V25ZM8 25.5C8 25.2239 8.22386 25 8.5 25V27C9.32843 27 10 26.3284 10 25.5H8ZM8 19V25.5H10V19H8ZM15.5 18H9V20H15.5V18ZM15 18.5C15 18.2239 15.2239 18 15.5 18V20C16.3284 20 17 19.3284 17 18.5H15ZM15.5 19C15.2239 19 15 18.7761 15 18.5H17C17 17.6716 16.3284 17 15.5 17V19ZM9 19H15.5V17H9V19ZM8 11.5V18H10V11.5H8ZM8.5 12C8.22386 12 8 11.7761 8 11.5H10C10 10.6716 9.32843 10 8.5 10V12Z" fill="#9173E6" mask="url(#path-3-outside-1_1068_3)"/>
</g>
<mask id="path-5-outside-2_1068_3" maskUnits="userSpaceOnUse" x="22" y="19" width="17" height="17" fill="black">
<rect fill="white" x="22" y="19" width="17" height="17"/>
<path fill-rule="evenodd" clip-rule="evenodd" d="M30.5 20C30.2239 20 30 20.2239 30 20.5V27H23.5C23.2239 27 23 27.2239 23 27.5C23 27.7761 23.2239 28 23.5 28H30V34.5C30 34.7761 30.2239 35 30.5 35C30.7761 35 31 34.7761 31 34.5V28H37.5C37.7761 28 38 27.7761 38 27.5C38 27.2239 37.7761 27 37.5 27H31V20.5C31 20.2239 30.7761 20 30.5 20Z"/>
</mask>
<path fill-rule="evenodd" clip-rule="evenodd" d="M30.5 20C30.2239 20 30 20.2239 30 20.5V27H23.5C23.2239 27 23 27.2239 23 27.5C23 27.7761 23.2239 28 23.5 28H30V34.5C30 34.7761 30.2239 35 30.5 35C30.7761 35 31 34.7761 31 34.5V28H37.5C37.7761 28 38 27.7761 38 27.5C38 27.2239 37.7761 27 37.5 27H31V20.5C31 20.2239 30.7761 20 30.5 20Z" fill="#5C37B7"/>
<path d="M30 27V28H31V27H30ZM30 28H31V27H30V28ZM31 28V27H30V28H31ZM31 27H30V28H31V27ZM31 20.5C31 20.7761 30.7761 21 30.5 21V19C29.6716 19 29 19.6716 29 20.5H31ZM31 27V20.5H29V27H31ZM23.5 28H30V26H23.5V28ZM24 27.5C24 27.7761 23.7761 28 23.5 28V26C22.6716 26 22 26.6716 22 27.5H24ZM23.5 27C23.7761 27 24 27.2239 24 27.5H22C22 28.3284 22.6716 29 23.5 29V27ZM30 27H23.5V29H30V27ZM31 34.5V28H29V34.5H31ZM30.5 34C30.7761 34 31 34.2239 31 34.5H29C29 35.3284 29.6716 36 30.5 36V34ZM30 34.5C30 34.2239 30.2239 34 30.5 34V36C31.3284 36 32 35.3284 32 34.5H30ZM30 28V34.5H32V28H30ZM37.5 27H31V29H37.5V27ZM37 27.5C37 27.2239 37.2239 27 37.5 27V29C38.3284 29 39 28.3284 39 27.5H37ZM37.5 28C37.2239 28 37 27.7761 37 27.5H39C39 26.6716 38.3284 26 37.5 26V28ZM31 28H37.5V26H31V28ZM30 20.5V27H32V20.5H30ZM30.5 21C30.2239 21 30 20.7761 30 20.5H32C32 19.6716 31.3284 19 30.5 19V21Z" fill="#9173E6" mask="url(#path-5-outside-2_1068_3)"/>
<defs>
<pattern id="pattern0" patternContentUnits="objectBoundingBox" width="1" height="1">
</pattern>
</defs>
</svg>
