<svg width="991" height="815" viewBox="0 0 991 815" fill="none" xmlns="http://www.w3.org/2000/svg" xmlns:xlink="http://www.w3.org/1999/xlink">
<path d="M185.133 761.957L447.648 457.84" stroke="#936EEA" stroke-width="6"/>
<path d="M660.891 392.16L926.516 81" stroke="#936EEA" stroke-width="6"/>
<mask id="path-3-outside-1_1039_4" maskUnits="userSpaceOnUse" x="293" y="130" width="17" height="17" fill="black">
<rect fill="white" x="293" y="130" width="17" height="17"/>
<path fill-rule="evenodd" clip-rule="evenodd" d="M301.5 131C301.224 131 301 131.224 301 131.5V138H294.5C294.224 138 294 138.224 294 138.5C294 138.776 294.224 139 294.5 139H301V145.5C301 145.776 301.224 146 301.5 146C301.776 146 302 145.776 302 145.5V139H308.5C308.776 139 309 138.776 309 138.5C309 138.224 308.776 138 308.5 138H302V131.5C302 131.224 301.776 131 301.5 131Z"/>
</mask>
<path fill-rule="evenodd" clip-rule="evenodd" d="M301.5 131C301.224 131 301 131.224 301 131.5V138H294.5C294.224 138 294 138.224 294 138.5C294 138.776 294.224 139 294.5 139H301V145.5C301 145.776 301.224 146 301.5 146C301.776 146 302 145.776 302 145.5V139H308.5C308.776 139 309 138.776 309 138.5C309 138.224 308.776 138 308.5 138H302V131.5C302 131.224 301.776 131 301.5 131Z" fill="#5C37B7"/>
<path d="M301 138V139H302V138H301ZM301 139H302V138H301V139ZM302 139V138H301V139H302ZM302 138H301V139H302V138ZM302 131.5C302 131.776 301.776 132 301.5 132V130C300.672 130 300 130.672 300 131.5H302ZM302 138V131.5H300V138H302ZM294.5 139H301V137H294.5V139ZM295 138.5C295 138.776 294.776 139 294.5 139V137C293.672 137 293 137.672 293 138.5H295ZM294.5 138C294.776 138 295 138.224 295 138.5H293C293 139.328 293.672 140 294.5 140V138ZM301 138H294.5V140H301V138ZM302 145.5V139H300V145.5H302ZM301.5 145C301.776 145 302 145.224 302 145.5H300C300 146.328 300.672 147 301.5 147V145ZM301 145.5C301 145.224 301.224 145 301.5 145V147C302.328 147 303 146.328 303 145.5H301ZM301 139V145.5H303V139H301ZM308.5 138H302V140H308.5V138ZM308 138.5C308 138.224 308.224 138 308.5 138V140C309.328 140 310 139.328 310 138.5H308ZM308.5 139C308.224 139 308 138.776 308 138.5H310C310 137.672 309.328 137 308.5 137V139ZM302 139H308.5V137H302V139ZM301 131.5V138H303V131.5H301ZM301.5 132C301.224 132 301 131.776 301 131.5H303C303 130.672 302.328 130 301.5 130V132Z" fill="#9173E6" mask="url(#path-3-outside-1_1039_4)"/>
<g opacity="0.3">
<mask id="path-5-outside-2_1039_4" maskUnits="userSpaceOnUse" x="315" y="147" width="17" height="17" fill="black">
<rect fill="white" x="315" y="147" width="17" height="17"/>
<path fill-rule="evenodd" clip-rule="evenodd" d="M323.5 148C323.224 148 323 148.224 323 148.5V155H316.5C316.224 155 316 155.224 316 155.5C316 155.776 316.224 156 316.5 156H323V162.5C323 162.776 323.224 163 323.5 163C323.776 163 324 162.776 324 162.5V156H330.5C330.776 156 331 155.776 331 155.5C331 155.224 330.776 155 330.5 155H324V148.5C324 148.224 323.776 148 323.5 148Z"/>
</mask>
<path fill-rule="evenodd" clip-rule="evenodd" d="M323.5 148C323.224 148 323 148.224 323 148.5V155H316.5C316.224 155 316 155.224 316 155.5C316 155.776 316.224 156 316.5 156H323V162.5C323 162.776 323.224 163 323.5 163C323.776 163 324 162.776 324 162.5V156H330.5C330.776 156 331 155.776 331 155.5C331 155.224 330.776 155 330.5 155H324V148.5C324 148.224 323.776 148 323.5 148Z" fill="#5C37B7"/>
<path d="M323 155V156H324V155H323ZM323 156H324V155H323V156ZM324 156V155H323V156H324ZM324 155H323V156H324V155ZM324 148.5C324 148.776 323.776 149 323.5 149V147C322.672 147 322 147.672 322 148.5H324ZM324 155V148.5H322V155H324ZM316.5 156H323V154H316.5V156ZM317 155.5C317 155.776 316.776 156 316.5 156V154C315.672 154 315 154.672 315 155.5H317ZM316.5 155C316.776 155 317 155.224 317 155.5H315C315 156.328 315.672 157 316.5 157V155ZM323 155H316.5V157H323V155ZM324 162.5V156H322V162.5H324ZM323.5 162C323.776 162 324 162.224 324 162.5H322C322 163.328 322.672 164 323.5 164V162ZM323 162.5C323 162.224 323.224 162 323.5 162V164C324.328 164 325 163.328 325 162.5H323ZM323 156V162.5H325V156H323ZM330.5 155H324V157H330.5V155ZM330 155.5C330 155.224 330.224 155 330.5 155V157C331.328 157 332 156.328 332 155.5H330ZM330.5 156C330.224 156 330 155.776 330 155.5H332C332 154.672 331.328 154 330.5 154V156ZM324 156H330.5V154H324V156ZM323 148.5V155H325V148.5H323ZM323.5 149C323.224 149 323 148.776 323 148.5H325C325 147.672 324.328 147 323.5 147V149Z" fill="#9173E6" mask="url(#path-5-outside-2_1039_4)"/>
</g>
<mask id="path-7-outside-3_1039_4" maskUnits="userSpaceOnUse" x="773" y="400" width="17" height="17" fill="black">
<rect fill="white" x="773" y="400" width="17" height="17"/>
<path fill-rule="evenodd" clip-rule="evenodd" d="M781.5 401C781.224 401 781 401.224 781 401.5V408H774.5C774.224 408 774 408.224 774 408.5C774 408.776 774.224 409 774.5 409H781V415.5C781 415.776 781.224 416 781.5 416C781.776 416 782 415.776 782 415.5V409H788.5C788.776 409 789 408.776 789 408.5C789 408.224 788.776 408 788.5 408H782V401.5C782 401.224 781.776 401 781.5 401Z"/>
</mask>
<path fill-rule="evenodd" clip-rule="evenodd" d="M781.5 401C781.224 401 781 401.224 781 401.5V408H774.5C774.224 408 774 408.224 774 408.5C774 408.776 774.224 409 774.5 409H781V415.5C781 415.776 781.224 416 781.5 416C781.776 416 782 415.776 782 415.5V409H788.5C788.776 409 789 408.776 789 408.5C789 408.224 788.776 408 788.5 408H782V401.5C782 401.224 781.776 401 781.5 401Z" fill="#5C37B7"/>
<path d="M781 408V409H782V408H781ZM781 409H782V408H781V409ZM782 409V408H781V409H782ZM782 408H781V409H782V408ZM782 401.5C782 401.776 781.776 402 781.5 402V400C780.672 400 780 400.672 780 401.5H782ZM782 408V401.5H780V408H782ZM774.5 409H781V407H774.5V409ZM775 408.5C775 408.776 774.776 409 774.5 409V407C773.672 407 773 407.672 773 408.5H775ZM774.5 408C774.776 408 775 408.224 775 408.5H773C773 409.328 773.672 410 774.5 410V408ZM781 408H774.5V410H781V408ZM782 415.5V409H780V415.5H782ZM781.5 415C781.776 415 782 415.224 782 415.5H780C780 416.328 780.672 417 781.5 417V415ZM781 415.5C781 415.224 781.224 415 781.5 415V417C782.328 417 783 416.328 783 415.5H781ZM781 409V415.5H783V409H781ZM788.5 408H782V410H788.5V408ZM788 408.5C788 408.224 788.224 408 788.5 408V410C789.328 410 790 409.328 790 408.5H788ZM788.5 409C788.224 409 788 408.776 788 408.5H790C790 407.672 789.328 407 788.5 407V409ZM782 409H788.5V407H782V409ZM781 401.5V408H783V401.5H781ZM781.5 402C781.224 402 781 401.776 781 401.5H783C783 400.672 782.328 400 781.5 400V402Z" fill="#9173E6" mask="url(#path-7-outside-3_1039_4)"/>
<rect width="991" height="815" fill="url(#pattern0)"/>
<defs>
<pattern id="pattern0" patternContentUnits="objectBoundingBox" width="1" height="1">
</pattern>
</defs>
</svg>
