<svg width="437" height="568" viewBox="0 0 437 568" fill="none" xmlns="http://www.w3.org/2000/svg" xmlns:xlink="http://www.w3.org/1999/xlink">
<path d="M159 471.117L337.877 263.893" stroke="#936EEA" stroke-width="5"/>
<mask id="path-2-outside-1_1060_2" maskUnits="userSpaceOnUse" x="201" y="71" width="17" height="17" fill="black">
<rect fill="white" x="201" y="71" width="17" height="17"/>
<path fill-rule="evenodd" clip-rule="evenodd" d="M209.5 72C209.224 72 209 72.2239 209 72.5V79H202.5C202.224 79 202 79.2239 202 79.5C202 79.7761 202.224 80 202.5 80H209V86.5C209 86.7761 209.224 87 209.5 87C209.776 87 210 86.7761 210 86.5V80H216.5C216.776 80 217 79.7761 217 79.5C217 79.2239 216.776 79 216.5 79H210V72.5C210 72.2239 209.776 72 209.5 72Z"/>
</mask>
<path fill-rule="evenodd" clip-rule="evenodd" d="M209.5 72C209.224 72 209 72.2239 209 72.5V79H202.5C202.224 79 202 79.2239 202 79.5C202 79.7761 202.224 80 202.5 80H209V86.5C209 86.7761 209.224 87 209.5 87C209.776 87 210 86.7761 210 86.5V80H216.5C216.776 80 217 79.7761 217 79.5C217 79.2239 216.776 79 216.5 79H210V72.5C210 72.2239 209.776 72 209.5 72Z" fill="#5C37B7"/>
<path d="M209 79V80H210V79H209ZM209 80H210V79H209V80ZM210 80V79H209V80H210ZM210 79H209V80H210V79ZM210 72.5C210 72.7761 209.776 73 209.5 73V71C208.672 71 208 71.6716 208 72.5H210ZM210 79V72.5H208V79H210ZM202.5 80H209V78H202.5V80ZM203 79.5C203 79.7761 202.776 80 202.5 80V78C201.672 78 201 78.6716 201 79.5H203ZM202.5 79C202.776 79 203 79.2239 203 79.5H201C201 80.3284 201.672 81 202.5 81V79ZM209 79H202.5V81H209V79ZM210 86.5V80H208V86.5H210ZM209.5 86C209.776 86 210 86.2239 210 86.5H208C208 87.3284 208.672 88 209.5 88V86ZM209 86.5C209 86.2239 209.224 86 209.5 86V88C210.328 88 211 87.3284 211 86.5H209ZM209 80V86.5H211V80H209ZM216.5 79H210V81H216.5V79ZM216 79.5C216 79.2239 216.224 79 216.5 79V81C217.328 81 218 80.3284 218 79.5H216ZM216.5 80C216.224 80 216 79.7761 216 79.5H218C218 78.6716 217.328 78 216.5 78V80ZM210 80H216.5V78H210V80ZM209 72.5V79H211V72.5H209ZM209.5 73C209.224 73 209 72.7761 209 72.5H211C211 71.6716 210.328 71 209.5 71V73Z" fill="#9173E6" mask="url(#path-2-outside-1_1060_2)"/>
<g opacity="0.3">
<mask id="path-4-outside-2_1060_2" maskUnits="userSpaceOnUse" x="223" y="88" width="17" height="17" fill="black">
<rect fill="white" x="223" y="88" width="17" height="17"/>
<path fill-rule="evenodd" clip-rule="evenodd" d="M231.5 89C231.224 89 231 89.2239 231 89.5V96H224.5C224.224 96 224 96.2239 224 96.5C224 96.7761 224.224 97 224.5 97H231V103.5C231 103.776 231.224 104 231.5 104C231.776 104 232 103.776 232 103.5V97H238.5C238.776 97 239 96.7761 239 96.5C239 96.2239 238.776 96 238.5 96H232V89.5C232 89.2239 231.776 89 231.5 89Z"/>
</mask>
<path fill-rule="evenodd" clip-rule="evenodd" d="M231.5 89C231.224 89 231 89.2239 231 89.5V96H224.5C224.224 96 224 96.2239 224 96.5C224 96.7761 224.224 97 224.5 97H231V103.5C231 103.776 231.224 104 231.5 104C231.776 104 232 103.776 232 103.5V97H238.5C238.776 97 239 96.7761 239 96.5C239 96.2239 238.776 96 238.5 96H232V89.5C232 89.2239 231.776 89 231.5 89Z" fill="#5C37B7"/>
<path d="M231 96V97H232V96H231ZM231 97H232V96H231V97ZM232 97V96H231V97H232ZM232 96H231V97H232V96ZM232 89.5C232 89.7761 231.776 90 231.5 90V88C230.672 88 230 88.6716 230 89.5H232ZM232 96V89.5H230V96H232ZM224.5 97H231V95H224.5V97ZM225 96.5C225 96.7761 224.776 97 224.5 97V95C223.672 95 223 95.6716 223 96.5H225ZM224.5 96C224.776 96 225 96.2239 225 96.5H223C223 97.3284 223.672 98 224.5 98V96ZM231 96H224.5V98H231V96ZM232 103.5V97H230V103.5H232ZM231.5 103C231.776 103 232 103.224 232 103.5H230C230 104.328 230.672 105 231.5 105V103ZM231 103.5C231 103.224 231.224 103 231.5 103V105C232.328 105 233 104.328 233 103.5H231ZM231 97V103.5H233V97H231ZM238.5 96H232V98H238.5V96ZM238 96.5C238 96.2239 238.224 96 238.5 96V98C239.328 98 240 97.3284 240 96.5H238ZM238.5 97C238.224 97 238 96.7761 238 96.5H240C240 95.6716 239.328 95 238.5 95V97ZM232 97H238.5V95H232V97ZM231 89.5V96H233V89.5H231ZM231.5 90C231.224 90 231 89.7761 231 89.5H233C233 88.6716 232.328 88 231.5 88V90Z" fill="#9173E6" mask="url(#path-4-outside-2_1060_2)"/>
</g>
<mask id="path-6-outside-3_1060_2" maskUnits="userSpaceOnUse" x="381" y="281" width="17" height="17" fill="black">
<rect fill="white" x="381" y="281" width="17" height="17"/>
<path fill-rule="evenodd" clip-rule="evenodd" d="M389.5 282C389.224 282 389 282.224 389 282.5V289H382.5C382.224 289 382 289.224 382 289.5C382 289.776 382.224 290 382.5 290H389V296.5C389 296.776 389.224 297 389.5 297C389.776 297 390 296.776 390 296.5V290H396.5C396.776 290 397 289.776 397 289.5C397 289.224 396.776 289 396.5 289H390V282.5C390 282.224 389.776 282 389.5 282Z"/>
</mask>
<path fill-rule="evenodd" clip-rule="evenodd" d="M389.5 282C389.224 282 389 282.224 389 282.5V289H382.5C382.224 289 382 289.224 382 289.5C382 289.776 382.224 290 382.5 290H389V296.5C389 296.776 389.224 297 389.5 297C389.776 297 390 296.776 390 296.5V290H396.5C396.776 290 397 289.776 397 289.5C397 289.224 396.776 289 396.5 289H390V282.5C390 282.224 389.776 282 389.5 282Z" fill="#5C37B7"/>
<path d="M389 289V290H390V289H389ZM389 290H390V289H389V290ZM390 290V289H389V290H390ZM390 289H389V290H390V289ZM390 282.5C390 282.776 389.776 283 389.5 283V281C388.672 281 388 281.672 388 282.5H390ZM390 289V282.5H388V289H390ZM382.5 290H389V288H382.5V290ZM383 289.5C383 289.776 382.776 290 382.5 290V288C381.672 288 381 288.672 381 289.5H383ZM382.5 289C382.776 289 383 289.224 383 289.5H381C381 290.328 381.672 291 382.5 291V289ZM389 289H382.5V291H389V289ZM390 296.5V290H388V296.5H390ZM389.5 296C389.776 296 390 296.224 390 296.5H388C388 297.328 388.672 298 389.5 298V296ZM389 296.5C389 296.224 389.224 296 389.5 296V298C390.328 298 391 297.328 391 296.5H389ZM389 290V296.5H391V290H389ZM396.5 289H390V291H396.5V289ZM396 289.5C396 289.224 396.224 289 396.5 289V291C397.328 291 398 290.328 398 289.5H396ZM396.5 290C396.224 290 396 289.776 396 289.5H398C398 288.672 397.328 288 396.5 288V290ZM390 290H396.5V288H390V290ZM389 282.5V289H391V282.5H389ZM389.5 283C389.224 283 389 282.776 389 282.5H391C391 281.672 390.328 281 389.5 281V283Z" fill="#9173E6" mask="url(#path-6-outside-3_1060_2)"/>
<rect width="691" height="568" fill="url(#pattern0)"/>
<defs>
<pattern id="pattern0" patternContentUnits="objectBoundingBox" width="1" height="1">
</pattern>
</defs>
</svg>
